<mxfile host="app.diagrams.net" modified="2024-04-27T21:13:02.965Z" agent="Mozilla/5.0 (Macintosh; Intel Mac OS X 10_15_7) AppleWebKit/605.1.15 (KHTML, like Gecko) Version/16.5 Safari/605.1.15" etag="RwxPkeCN6K6SKY-q2gbF" version="24.3.1" type="github">
  <diagram id="R2lEEEUBdFMjLlhIrx00" name="Page-1">
    <mxGraphModel dx="1194" dy="541" grid="1" gridSize="10" guides="1" tooltips="1" connect="1" arrows="1" fold="1" page="1" pageScale="1" pageWidth="850" pageHeight="1100" math="0" shadow="0" extFonts="Permanent Marker^https://fonts.googleapis.com/css?family=Permanent+Marker">
      <root>
        <mxCell id="0" />
        <mxCell id="1" parent="0" />
        <mxCell id="rEoWHnive5NegohD-Rja-9" value="" style="edgeStyle=orthogonalEdgeStyle;rounded=0;orthogonalLoop=1;jettySize=auto;html=1;" edge="1" parent="1" source="rEoWHnive5NegohD-Rja-1" target="rEoWHnive5NegohD-Rja-2">
          <mxGeometry relative="1" as="geometry" />
        </mxCell>
        <mxCell id="rEoWHnive5NegohD-Rja-1" value="" style="ellipse;whiteSpace=wrap;html=1;aspect=fixed;" vertex="1" parent="1">
          <mxGeometry x="100" y="50" width="20" height="20" as="geometry" />
        </mxCell>
        <mxCell id="rEoWHnive5NegohD-Rja-3" style="edgeStyle=orthogonalEdgeStyle;rounded=0;orthogonalLoop=1;jettySize=auto;html=1;" edge="1" parent="1" source="rEoWHnive5NegohD-Rja-2" target="rEoWHnive5NegohD-Rja-4">
          <mxGeometry relative="1" as="geometry">
            <mxPoint x="410" y="60" as="targetPoint" />
          </mxGeometry>
        </mxCell>
        <mxCell id="rEoWHnive5NegohD-Rja-2" value="Жүйеге кіру" style="rounded=1;whiteSpace=wrap;html=1;" vertex="1" parent="1">
          <mxGeometry x="160" y="40" width="90" height="40" as="geometry" />
        </mxCell>
        <mxCell id="rEoWHnive5NegohD-Rja-7" value="" style="edgeStyle=orthogonalEdgeStyle;rounded=0;orthogonalLoop=1;jettySize=auto;html=1;" edge="1" parent="1" source="rEoWHnive5NegohD-Rja-4" target="rEoWHnive5NegohD-Rja-6">
          <mxGeometry relative="1" as="geometry" />
        </mxCell>
        <mxCell id="rEoWHnive5NegohD-Rja-4" value="Басты бет" style="rounded=1;whiteSpace=wrap;html=1;" vertex="1" parent="1">
          <mxGeometry x="310" y="45" width="90" height="30" as="geometry" />
        </mxCell>
        <mxCell id="rEoWHnive5NegohD-Rja-11" value="" style="edgeStyle=orthogonalEdgeStyle;rounded=0;orthogonalLoop=1;jettySize=auto;html=1;" edge="1" parent="1" source="rEoWHnive5NegohD-Rja-6" target="rEoWHnive5NegohD-Rja-10">
          <mxGeometry relative="1" as="geometry" />
        </mxCell>
        <mxCell id="rEoWHnive5NegohD-Rja-6" value="Тауарларды қарау" style="whiteSpace=wrap;html=1;rounded=1;" vertex="1" parent="1">
          <mxGeometry x="450" y="45" width="85" height="30" as="geometry" />
        </mxCell>
        <mxCell id="rEoWHnive5NegohD-Rja-13" value="" style="edgeStyle=orthogonalEdgeStyle;rounded=0;orthogonalLoop=1;jettySize=auto;html=1;" edge="1" parent="1" source="rEoWHnive5NegohD-Rja-10" target="rEoWHnive5NegohD-Rja-12">
          <mxGeometry relative="1" as="geometry">
            <Array as="points">
              <mxPoint x="664" y="160" />
              <mxPoint x="380" y="160" />
            </Array>
          </mxGeometry>
        </mxCell>
        <mxCell id="rEoWHnive5NegohD-Rja-10" value="корзинаға салу" style="whiteSpace=wrap;html=1;rounded=1;" vertex="1" parent="1">
          <mxGeometry x="620" y="45" width="87.5" height="30" as="geometry" />
        </mxCell>
        <mxCell id="rEoWHnive5NegohD-Rja-14" style="edgeStyle=orthogonalEdgeStyle;rounded=0;orthogonalLoop=1;jettySize=auto;html=1;" edge="1" parent="1" source="rEoWHnive5NegohD-Rja-12" target="rEoWHnive5NegohD-Rja-15">
          <mxGeometry relative="1" as="geometry">
            <mxPoint x="190" y="265" as="targetPoint" />
          </mxGeometry>
        </mxCell>
        <mxCell id="rEoWHnive5NegohD-Rja-17" style="edgeStyle=orthogonalEdgeStyle;rounded=0;orthogonalLoop=1;jettySize=auto;html=1;" edge="1" parent="1" source="rEoWHnive5NegohD-Rja-12" target="rEoWHnive5NegohD-Rja-16">
          <mxGeometry relative="1" as="geometry" />
        </mxCell>
        <mxCell id="rEoWHnive5NegohD-Rja-12" value="Аккаунт барма?" style="rhombus;whiteSpace=wrap;html=1;rounded=1;" vertex="1" parent="1">
          <mxGeometry x="300" y="230" width="120" height="70" as="geometry" />
        </mxCell>
        <mxCell id="rEoWHnive5NegohD-Rja-15" value="Аккаунтқа кіру" style="rounded=1;whiteSpace=wrap;html=1;" vertex="1" parent="1">
          <mxGeometry x="130" y="250" width="80" height="35" as="geometry" />
        </mxCell>
        <mxCell id="rEoWHnive5NegohD-Rja-18" style="edgeStyle=orthogonalEdgeStyle;rounded=0;orthogonalLoop=1;jettySize=auto;html=1;" edge="1" parent="1" source="rEoWHnive5NegohD-Rja-16">
          <mxGeometry relative="1" as="geometry">
            <mxPoint x="660" y="265" as="targetPoint" />
          </mxGeometry>
        </mxCell>
        <mxCell id="rEoWHnive5NegohD-Rja-16" value="Тіркелу" style="rounded=1;whiteSpace=wrap;html=1;" vertex="1" parent="1">
          <mxGeometry x="490" y="247.5" width="90" height="35" as="geometry" />
        </mxCell>
      </root>
    </mxGraphModel>
  </diagram>
</mxfile>
